<?xml version="1.0" encoding="utf-8"?>
<!-- Generator: Adobe Illustrator 21.0.0, SVG Export Plug-In . SVG Version: 6.00 Build 0)  -->
<svg version="1.1" xmlns="http://www.w3.org/2000/svg" xmlns:xlink="http://www.w3.org/1999/xlink" x="0px" y="0px"
	 viewBox="0 0 300 118" enable-background="new 0 0 300 118" xml:space="preserve">
<g id="Layer_1">
	<g>
		<g>
			<path fill="#fff" d="M277.6,106.1H22.4c-7.5,0-13.7-6.1-13.7-13.7V25.6c0-7.5,6.1-13.7,13.7-13.7l255.2,0
				c7.5,0,13.7,6.1,13.7,13.7l0,66.8C291.3,100,285.2,106.1,277.6,106.1z M277.6,14.5l-255.2,0c-6.1,0-11.1,5-11.1,11.1v66.8
				c0,6.1,5,11.1,11.1,11.1h255.2c6.1,0,11.1-5,11.1-11.1h1.3h-1.3l0-66.8C288.7,19.5,283.7,14.5,277.6,14.5z"/>
		</g>
		<g>
			<path fill="#fff" d="M83,73.7c-1.5,3.3-2.2,4.8-4.1,7.7c-2.7,4.1-6.4,9.1-11.1,9.1c-4.1,0-5.2-2.7-10.8-2.7
				c-5.6,0-6.8,2.7-10.9,2.7c-4.7,0-8.2-4.6-10.9-8.7c-7.4-11.3-8.2-24.6-3.6-31.7c3.3-5,8.4-8,13.3-8c4.9,0,8,2.7,12.1,2.7
				c4,0,6.4-2.7,12.1-2.7c4.3,0,8.9,2.3,12.1,6.4C70.5,54.5,72.2,69.7,83,73.7z"/>
			<g>
				<path fill="#fff" d="M64.7,37.7c2.1-2.7,3.6-6.4,3.1-10.2c-3.4,0.2-7.3,2.4-9.6,5.2c-2.1,2.5-3.8,6.3-3.2,10
					C58.7,42.7,62.5,40.5,64.7,37.7z"/>
			</g>
		</g>
		<g>
			<g>
				<path fill="#fff" d="M105.7,50L95,81.4l4.9,0l3.2-9.6l10.3,0l3.3,9.6l5,0L111,50L105.7,50z M108.2,55.2
					c0.4,1.4,0.7,2.9,1.2,4.4l2.9,8.3l-8.2,0l2.8-8.4C107.4,58.2,107.9,56.7,108.2,55.2z"/>
				<path fill="#fff" d="M135.5,58.2c-3.2,0-5.8,1.2-7.6,3.6l-0.2-3.1l-4.3,0l0,0.4c0.1,1.9,0.2,4.1,0.2,7.2l0,24.2l4.8,0l0-11.3
					c1.5,1.8,3.8,2.8,6.5,2.8c2.8,0,5.3-1.1,7.2-3.1c2.1-2.2,3.2-5.4,3.2-9.1c0-3.3-1-6.2-2.8-8.3C140.7,59.3,138.3,58.2,135.5,58.2
					z M134.3,62.1c4.2,0,6.1,3.9,6.1,7.8c0,5-2.4,8.1-6.3,8.1c-2.7,0-5-1.8-5.6-4.4c-0.1-0.4-0.2-0.9-0.2-1.5l0-3.8
					c0-0.3,0.1-0.8,0.2-1.2c0-0.1,0-0.3,0.1-0.4C129.3,64,131.7,62.1,134.3,62.1z"/>
				<path fill="#fff" d="M160,58.2c-3.2,0-5.8,1.2-7.6,3.6l-0.2-3.1l-4.3,0l0,0.4c0.1,1.9,0.2,4.1,0.2,7.2l0,24.2l4.8,0l0-11.3
					c1.5,1.8,3.8,2.8,6.5,2.8c2.8,0,5.3-1.1,7.2-3.1c2.1-2.2,3.2-5.4,3.2-9.1c0-3.3-1-6.2-2.8-8.3C165.2,59.3,162.7,58.2,160,58.2z
					 M158.8,62.1c4.2,0,6.1,3.9,6.1,7.8c0,5-2.4,8.1-6.3,8.1c-2.7,0-5-1.8-5.6-4.4c-0.1-0.4-0.2-0.9-0.2-1.5v-3.8
					c0-0.3,0.1-0.8,0.2-1.2c0-0.1,0-0.3,0.1-0.4C153.8,64,156.1,62.1,158.8,62.1z"/>
				<path fill="#fff" d="M190.6,63.3c-4.4-1.7-5.9-3.1-5.9-5.6c0-2.1,1.7-4.2,5.4-4.2c3.1,0,5,1.1,5.6,1.4l0.4,0.2l1.3-4
					l-0.3-0.2c-0.8-0.5-3.1-1.6-6.9-1.6c-6.1,0-10.3,3.6-10.3,8.7c0,4.1,2.6,7,8.3,9.1c4,1.5,5.5,3.1,5.5,5.7c0,3-2.3,4.9-6,4.9
					c-2.4,0-4.9-0.7-6.8-1.9l-0.4-0.3l-1.3,4.1l0.2,0.2c1.8,1.2,5.2,2.1,8,2.1c8.2,0,11.1-5,11.1-9.2
					C198.7,68.3,196.3,65.6,190.6,63.3z"/>
				<path fill="#fff" d="M207.2,53.2l-4.7,1.5l0,3.9l-3.4,0v3.8l3.4,0l0,11.6c0,2.8,0.5,4.8,1.6,6c1.1,1.2,2.7,1.8,4.6,1.8
					c1.8,0,3.1-0.4,3.7-0.6l0.3-0.1l-0.2-3.8l-0.5,0.1c-0.6,0.2-1.2,0.3-2.2,0.3c-1.8,0-2.6-1.2-2.6-3.9l0-11.5l5.7,0v-3.8l-5.7,0
					V53.2z"/>
				<path fill="#fff" d="M224.7,58.2c-6.6,0-11.3,5-11.3,12.1c0,6.9,4.5,11.7,10.9,11.7h0c5.4,0,11.3-3.8,11.3-12.1
					c0-3.4-1-6.3-3-8.4C230.7,59.3,227.9,58.2,224.7,58.2z M224.6,61.9c4.3,0,6.2,4.2,6.2,8c0,4.8-2.7,8.2-6.3,8.2h0
					c-3.6,0-6.2-3.4-6.2-8.1C218.2,66,220.2,61.9,224.6,61.9z"/>
				<path fill="#fff" d="M250.2,58.4l-0.3-0.1c-0.4-0.1-0.8-0.1-1.2-0.1c-2.5,0-4.7,1.5-6,3.8l-0.1-3.3l-4.3,0l0,0.4
					c0.1,1.9,0.2,4,0.2,6.8l0,15.5l4.8,0l0-12.1c0-0.7,0-1.3,0.1-1.8c0.5-2.9,2.5-4.8,5-4.8c0.5,0,0.9,0,1.3,0.1l0.5,0.1V58.4z"/>
				<path fill="#fff" d="M260.9,58.1c-6.3,0-10.7,5.1-10.7,12.3c0,7,4.4,11.5,11.2,11.5c3.6,0,6.1-0.8,7.5-1.4l0.3-0.1l-0.9-3.5
					l-0.4,0.2c-1.3,0.5-3,1.1-6,1.1c-2.1,0-6.8-0.7-7.1-6.9l15.3,0l0.1-0.3c0.1-0.5,0.1-1.1,0.1-2C270.3,63.9,267.9,58.1,260.9,58.1
					z M260.6,61.7c1.4,0,2.6,0.4,3.5,1.3c1.4,1.4,1.6,3.4,1.6,4.4l-10.8,0C255.3,64.7,257,61.7,260.6,61.7z"/>
			</g>
			<g>
				<path fill="#fff" d="M95,28.6c1.3-0.2,2.9-0.3,4.6-0.3c3.1,0,5.2,0.6,6.7,1.8c1.5,1.2,2.4,3,2.4,5.4c0,2.4-0.9,4.4-2.4,5.8
					c-1.6,1.4-4.1,2.1-7.3,2.1c-1.5,0-2.8,0-3.9-0.2L95,28.6z M97.2,41.7c0.5,0.1,1.3,0.1,2.2,0.1c4.6,0,7-2.3,7-6.3
					c0-3.5-2.2-5.7-6.7-5.7c-1.1,0-1.9,0.1-2.5,0.2L97.2,41.7z"/>
				<path fill="#fff" d="M116.3,43.5c-3.2,0-5.7-2.1-5.7-5.5c0-3.6,2.6-5.7,5.9-5.7c3.4,0,5.7,2.2,5.7,5.5
					C122.2,41.8,119.1,43.5,116.3,43.5L116.3,43.5z M116.3,42c2.1,0,3.6-1.7,3.6-4.2c0-1.8-1-4.1-3.6-4.1c-2.5,0-3.6,2.1-3.6,4.1
					C112.8,40.3,114.2,42,116.3,42L116.3,42z"/>
				<path fill="#fff" d="M125.6,32.6l1.6,5.4c0.3,1.2,0.6,2.3,0.9,3.4h0.1c0.3-1.1,0.7-2.2,1.1-3.4l1.9-5.4l1.8,0l1.8,5.3
					c0.4,1.3,0.8,2.4,1.1,3.5h0.1c0.2-1.1,0.5-2.2,0.9-3.5l1.7-5.4l2.1,0l-3.8,10.7l-2,0l-1.8-5.1c-0.4-1.2-0.8-2.3-1.1-3.5h0
					c-0.3,1.3-0.7,2.4-1.1,3.5l-1.9,5.1l-2,0l-3.6-10.7L125.6,32.6z"/>
				<path fill="#fff" d="M142.8,35.4c0-1.1,0-2-0.1-2.9l1.9,0l0.1,1.7h0c0.6-1,2-2,3.9-2c1.6,0,4.2,0.9,4.2,4.5l0,6.4l-2.2,0
					l0-6.2c0-1.7-0.7-3.2-2.7-3.2c-1.4,0-2.5,0.9-2.9,2c-0.1,0.2-0.1,0.6-0.1,0.9l0,6.4l-2.2,0L142.8,35.4z"/>
				<path fill="#fff" d="M156.4,27.6l2.2,0l0,15.7l-2.2,0L156.4,27.6z"/>
				<path fill="#fff" d="M166.9,43.5c-3.2,0-5.7-2.1-5.7-5.5c0-3.6,2.6-5.7,5.9-5.7c3.4,0,5.7,2.2,5.7,5.5
					C172.8,41.8,169.8,43.5,166.9,43.5L166.9,43.5z M167,42c2.1,0,3.6-1.7,3.6-4.2c0-1.8-1-4.1-3.6-4.1c-2.5,0-3.6,2.1-3.6,4.1
					C163.4,40.3,164.9,42,167,42L167,42z"/>
				<path fill="#fff" d="M183.9,40.7c0,0.9,0,1.8,0.2,2.6l-1.9,0l-0.2-1.3h-0.1c-0.6,0.8-1.9,1.6-3.6,1.6c-2.4,0-3.6-1.5-3.6-3.1
					c0-2.6,2.5-4,7.1-4v-0.2c0-0.9-0.3-2.5-2.7-2.5c-1.1,0-2.3,0.3-3.1,0.8l-0.5-1.3c1-0.6,2.4-0.9,3.9-0.9c3.6,0,4.5,2.2,4.5,4.4
					V40.7z M181.8,37.8c-2.4,0-5,0.3-5,2.4c0,1.3,0.9,1.9,2,1.9c1.6,0,2.6-0.9,2.9-1.8c0.1-0.2,0.1-0.4,0.1-0.6L181.8,37.8z"/>
				<path fill="#fff" d="M197.6,27.6l0,12.9c0,0.9,0,2,0.1,2.8h-1.9l-0.1-1.9h0c-0.7,1.2-2.1,2.1-4,2.1c-2.9,0-5.1-2.2-5.1-5.4
					c0-3.6,2.5-5.7,5.3-5.7c1.8,0,3.1,0.8,3.6,1.6h0l0-6.3L197.6,27.6z M195.4,36.9c0-0.3,0-0.6-0.1-0.8c-0.3-1.2-1.5-2.2-3.1-2.2
					c-2.2,0-3.6,1.8-3.6,4.1c0,2.2,1.2,4,3.5,4c1.4,0,2.8-0.9,3.2-2.3c0.1-0.3,0.1-0.5,0.1-0.8V36.9z"/>
				<path fill="#fff" d="M211.2,43.5c-3.2,0-5.7-2.1-5.7-5.5c0-3.6,2.6-5.7,5.9-5.7c3.4,0,5.7,2.2,5.7,5.5
					C217.1,41.8,214,43.5,211.2,43.5L211.2,43.5z M211.3,42c2.1,0,3.6-1.7,3.6-4.2c0-1.8-1-4.1-3.6-4.1c-2.5,0-3.6,2.1-3.6,4.1
					C207.7,40.3,209.2,42,211.3,42L211.3,42z"/>
				<path fill="#fff" d="M219.8,35.4c0-1.1,0-2-0.1-2.9l1.9,0l0.1,1.7h0c0.6-1,2-2,3.9-2c1.6,0,4.2,0.9,4.2,4.5v6.4l-2.2,0v-6.2
					c0-1.7-0.7-3.2-2.7-3.2c-1.4,0-2.5,0.9-2.9,2c-0.1,0.2-0.1,0.6-0.1,0.9l0,6.4l-2.2,0L219.8,35.4z"/>
				<path fill="#fff" d="M241.2,30v2.6l3.1,0V34l-3.1,0l0,5.8c0,1.3,0.4,2.1,1.6,2.1c0.6,0,0.9,0,1.2-0.1l0.1,1.5
					c-0.4,0.1-1.1,0.3-1.9,0.3c-1,0-1.8-0.3-2.3-0.8c-0.6-0.6-0.8-1.5-0.8-2.8l0-5.8l-1.8,0v-1.5l1.8,0v-2L241.2,30z"/>
				<path fill="#fff" d="M246.7,27.6l2.2,0l0,6.7h0.1c0.3-0.6,0.9-1.1,1.5-1.4c0.6-0.4,1.4-0.6,2.2-0.6c1.6,0,4.1,0.9,4.1,4.6
					l0,6.3l-2.2,0l0-6.1c0-1.7-0.7-3.2-2.7-3.2c-1.4,0-2.5,0.9-2.9,1.9c-0.1,0.3-0.1,0.6-0.1,0.9l0,6.4l-2.2,0L246.7,27.6z"/>
				<path fill="#fff" d="M261.5,38.2c0.1,2.6,1.9,3.7,4,3.7c1.5,0,2.5-0.2,3.3-0.5l0.4,1.4c-0.8,0.3-2.1,0.7-4,0.7
					c-3.6,0-5.8-2.2-5.8-5.4c0-3.2,2.1-5.8,5.6-5.8c3.9,0,4.9,3.1,4.9,5c0,0.4,0,0.7-0.1,0.9L261.5,38.2z M267.8,36.8
					c0-1.2-0.6-3.2-3-3.2c-2.2,0-3.1,1.8-3.3,3.2L267.8,36.8z"/>
			</g>
		</g>
	</g>
</g>
<g id="Linhas_Guias" display="none">
</g>
</svg>
