<?xml version="1.0" encoding="utf-8"?>
<!-- Generator: Adobe Illustrator 21.0.0, SVG Export Plug-In . SVG Version: 6.00 Build 0)  -->
<svg version="1.1" xmlns="http://www.w3.org/2000/svg" xmlns:xlink="http://www.w3.org/1999/xlink" x="0px" y="0px"
	 viewBox="0 0 300 118" enable-background="new 0 0 300 118" xml:space="preserve">
<g id="Layer_1">
	<g>
		<g>
			<path fill="#fff" d="M277.6,106.1H22.4c-7.5,0-13.7-6.1-13.7-13.7V25.6c0-7.5,6.1-13.7,13.7-13.7l255.2,0
				c7.5,0,13.7,6.1,13.7,13.7v66.8C291.3,100,285.2,106.1,277.6,106.1z M277.6,14.5l-255.2,0c-6.1,0-11.1,5-11.1,11.1v66.8
				c0,6.1,5,11.1,11.1,11.1h255.2c6.1,0,11.1-5,11.1-11.1V25.6C288.7,19.5,283.7,14.5,277.6,14.5z"/>
		</g>
		<g id="PLAY_4_">
			<defs>
				<path id="SVGID_1_" d="M70.7,53.5l-12.6-7.3c0,0-23-13.3-24.4-14.1c-1.4-0.8-2.7-0.3-2.7,1.3c0,2.7,0,28.4,0,28.4s0,27.7,0,28.9
					c0,1.2,1,1.8,2.1,1.1c1.2-0.7,24.9-14.4,24.9-14.4l12.6-7.3c0,0,10.7-6.2,12.1-7c1.4-0.8,1.3-2,0.1-2.6
					C81.7,59.9,70.7,53.5,70.7,53.5z"/>
			</defs>
			<clipPath id="SVGID_2_">
				<use xlink:href="#SVGID_1_"  overflow="visible"/>
			</clipPath>
			<linearGradient id="SVGID_3_" gradientUnits="userSpaceOnUse" x1="46.6405" y1="30.8377" x2="46.6405" y2="92.8632">
				<stop  offset="0" style="stop-color:#257DB0"/>
				<stop  offset="0.208" style="stop-color:#3C90B3"/>
				<stop  offset="0.7416" style="stop-color:#73BDB9"/>
				<stop  offset="1" style="stop-color:#89CEBC"/>
			</linearGradient>
			<polygon clip-path="url(#SVGID_2_)" fill="url(#SVGID_3_)" points="31,30.8 31,61.9 31,92.9 62.3,61.9 			"/>
			<linearGradient id="SVGID_4_" gradientUnits="userSpaceOnUse" x1="31.0021" y1="46.2315" x2="70.6796" y2="46.2315">
				<stop  offset="0" style="stop-color:#51BFAC"/>
				<stop  offset="1" style="stop-color:#DEE899"/>
			</linearGradient>
			<polygon clip-path="url(#SVGID_2_)" fill="url(#SVGID_4_)" points="70.7,53.5 58.1,46.2 31,30.6 31,30.8 62.3,61.9 			"/>
			<linearGradient id="SVGID_5_" gradientUnits="userSpaceOnUse" x1="50.8407" y1="61.8509" x2="50.8407" y2="93.0888">
				<stop  offset="0" style="stop-color:#EB403D"/>
				<stop  offset="0.1937" style="stop-color:#D64252"/>
				<stop  offset="0.7369" style="stop-color:#9F4887"/>
				<stop  offset="1" style="stop-color:#894A9C"/>
			</linearGradient>
			<polygon clip-path="url(#SVGID_2_)" fill="url(#SVGID_5_)" points="31,92.9 31,93.1 58.1,77.5 70.7,70.2 62.3,61.9 			"/>
			<linearGradient id="SVGID_6_" gradientUnits="userSpaceOnUse" x1="73.6933" y1="53.5207" x2="73.6933" y2="70.1799">
				<stop  offset="0" style="stop-color:#F48779"/>
				<stop  offset="0.6121" style="stop-color:#FAB076"/>
				<stop  offset="1" style="stop-color:#FDC674"/>
			</linearGradient>
			<polygon clip-path="url(#SVGID_2_)" fill="url(#SVGID_6_)" points="70.7,53.5 62.3,61.9 70.7,70.2 85.1,61.9 			"/>
		</g>
		<g>
			<path fill="#fff" d="M227.9,74c-1.2,0-2.2-0.2-3.2-0.6c-1-0.4-1.8-1.1-2.4-2l-0.2,0c0.1,1.1,0.2,2.1,0.2,3l0,7.4l-2.7,0
				l0-26.1h2.2l0.4,2.5h0.1c0.7-1,1.5-1.7,2.5-2.1c0.9-0.4,2-0.7,3.2-0.7c2.4,0,4.2,0.8,5.5,2.5c1.3,1.6,2,3.9,2,6.9
				c0,3-0.7,5.3-2,6.9C232.1,73.2,230.3,74,227.9,74z M227.5,57.6c-1.8,0-3.2,0.5-4,1.5c-0.8,1-1.2,2.6-1.3,4.9v0.6
				c0,2.5,0.4,4.3,1.3,5.4c0.8,1.1,2.2,1.6,4.1,1.6c1.6,0,2.8-0.6,3.7-1.9c0.9-1.3,1.3-3,1.3-5.2c0-2.2-0.4-4-1.3-5.2
				C230.4,58.2,229.1,57.6,227.5,57.6z"/>
			<path fill="#fff" d="M241.7,73.6l-2.7,0l0-25.6l2.7,0L241.7,73.6z"/>
			<path fill="#fff" d="M257.4,73.6l-0.5-2.6h-0.1c-0.9,1.1-1.8,1.9-2.7,2.3c-0.9,0.4-2,0.6-3.3,0.6c-1.8,0-3.2-0.5-4.2-1.4
				s-1.5-2.2-1.5-3.9c0-3.6,2.9-5.6,8.7-5.7l3.1-0.1v-1.1c0-1.4-0.3-2.5-0.9-3.1c-0.6-0.7-1.6-1-2.9-1c-1.5,0-3.2,0.5-5.1,1.4
				l-0.8-2.1c0.9-0.5,1.9-0.9,2.9-1.1c1.1-0.3,2.1-0.4,3.2-0.4c2.2,0,3.7,0.5,4.8,1.4c1,1,1.6,2.5,1.6,4.6v12.3H257.4z M251.3,71.7
				c1.7,0,3-0.5,4-1.4c1-0.9,1.5-2.2,1.5-3.9v-1.6l-2.7,0.1c-2.2,0.1-3.7,0.4-4.7,1c-1,0.6-1.4,1.5-1.4,2.8c0,1,0.3,1.7,0.9,2.3
				C249.3,71.5,250.2,71.7,251.3,71.7z"/>
			<path fill="#fff" d="M261,55.6l2.9,0l4,10.3c0.9,2.3,1.4,4,1.6,5.1h0.1c0.1-0.6,0.4-1.5,0.9-2.9c0.5-1.4,1.9-5.5,4.5-12.5
				l2.9,0l-7.8,20.5c-0.8,2-1.7,3.5-2.7,4.3c-1,0.8-2.3,1.3-3.8,1.3c-0.8,0-1.7-0.1-2.5-0.3v-2.2c0.6,0.1,1.3,0.2,2,0.2
				c1.9,0,3.2-1.1,4-3.2l1-2.6L261,55.6z"/>
		</g>
		<g>
			<path fill="#fff" d="M177.3,57.3c0.9,0.7,2.7,2.2,2.7,5.1c0,2.8-1.6,4.1-3.2,5.4c-0.5,0.5-1.1,1-1.1,1.9c0,0.8,0.6,1.3,1,1.6
				l1.4,1.1c1.7,1.4,3.2,2.7,3.2,5.3c0,3.5-3.4,7.1-9.9,7.1c-5.5,0-8.1-2.6-8.1-5.4c0-1.4,0.7-3.3,2.9-4.6c2.3-1.4,5.5-1.6,7.2-1.7
				c-0.5-0.7-1.1-1.4-1.1-2.6c0-0.6,0.2-1,0.4-1.5c-0.4,0-0.8,0.1-1.2,0.1c-4,0-6.3-3-6.3-5.9c0-1.7,0.8-3.7,2.4-5.1
				c2.2-1.8,4.7-2.1,6.8-2.1l7.8,0l-2.4,1.4L177.3,57.3z M174.6,74c-0.3,0-0.5,0-0.9,0c-0.3,0-2.4,0.1-4,0.6
				c-0.8,0.3-3.2,1.2-3.2,3.9c0,2.7,2.6,4.6,6.6,4.6c3.6,0,5.5-1.7,5.5-4.1C178.7,77.1,177.5,76.1,174.6,74z M175.7,66.9
				c0.9-0.9,0.9-2.1,0.9-2.8c0-2.7-1.6-6.9-4.8-6.9c-1,0-2,0.5-2.6,1.2c-0.6,0.8-0.8,1.8-0.8,2.8c0,2.5,1.5,6.7,4.7,6.7
				C174.1,67.9,175.1,67.5,175.7,66.9z"/>
			<path fill="#fff" d="M153.5,73.4c-6,0-9.2-4.7-9.2-8.9c0-4.9,4-9.2,9.8-9.2c5.5,0,9,4.3,9,8.9
				C163.1,68.7,159.7,73.4,153.5,73.4z M158.3,70.4c0.9-1.2,1.1-2.7,1.1-4.2c0-3.3-1.6-9.6-6.3-9.6c-1.2,0-2.5,0.5-3.4,1.3
				c-1.5,1.3-1.7,3-1.7,4.6c0,3.7,1.8,9.9,6.4,9.9C155.9,72.3,157.4,71.6,158.3,70.4z"/>
			<path fill="#fff" d="M133.1,73.4c-6,0-9.2-4.7-9.2-8.9c0-4.9,4-9.2,9.8-9.2c5.5,0,9,4.3,9,8.9
				C142.7,68.7,139.3,73.4,133.1,73.4z M137.8,70.4c0.9-1.2,1.1-2.7,1.1-4.2c0-3.3-1.6-9.6-6.3-9.6c-1.2,0-2.5,0.5-3.4,1.3
				c-1.5,1.3-1.7,3-1.7,4.6c0,3.7,1.8,9.9,6.4,9.9C135.5,72.3,137,71.6,137.8,70.4z"/>
			<path fill="#fff" d="M121.1,72.8l-5.4,1.2c-2.2,0.3-4.2,0.6-6.2,0.6C98.9,74.7,95,67,95,61c0-7.3,5.6-14.2,15.3-14.2
				c2,0,4,0.3,5.8,0.8c2.8,0.8,4.2,1.8,5,2.3l-3.1,3l-1.3,0.3l0.9-1.5c-1.3-1.2-3.6-3.6-8.1-3.6c-6,0-10.5,4.5-10.5,11.2
				c0,7.1,5.2,13.8,13.4,13.8c2.4,0,3.7-0.5,4.8-0.9l0-6.1l-5.7,0.3l3-1.6l8,0l-1,0.9c-0.3,0.2-0.3,0.3-0.4,0.6
				c0,0.3-0.1,1.4-0.1,1.8L121.1,72.8z"/>
			<path fill="#fff" d="M189.3,71.8c-1.3-0.1-1.5-0.3-1.5-1.8v-0.4l0-21c0-0.1,0-0.2,0-0.2c0.2-1.3,0.5-1.6,1.7-2.2l-5.4,0
				l-2.8,1.4l2.9,0v0l0,0l0,22.1v1.3c0,0.8-0.1,0.9-1,2l6.7,0l1.4-0.8C190.6,71.9,189.9,71.8,189.3,71.8z"/>
			<path fill="#fff" d="M204.7,72.1c-0.4,0.2-0.8,0.5-1.2,0.7c-1.2,0.6-2.5,0.7-3.7,0.7c-1.2,0-3.1-0.1-5-1.5
				c-2.7-1.9-3.8-5.1-3.8-7.9c0-5.8,4.7-8.7,8.6-8.7c1.4,0,2.7,0.3,3.9,1.1c1.9,1.2,2.4,2.9,2.6,3.7l-8.8,3.6l-2.9,0.2
				c0.9,4.8,4.2,7.6,7.7,7.6c1.9,0,3.3-0.7,4.6-1.3L204.7,72.1z M201.1,60.9c0.7-0.3,1.1-0.5,1.1-1c0-1.5-1.7-3.2-3.7-3.2
				c-1.5,0-4.3,1.2-4.3,5.2c0,0.6,0.1,1.3,0.1,2L201.1,60.9z"/>
			<g>
				<path fill="#fff" d="M208.3,55.7v2.5H208l0-2.5l-0.8,0v-0.3l1.9,0v0.3H208.3z"/>
				<path fill="#fff" d="M211.7,58.1v-2.5h0l-0.8,2.5h-0.2l-0.8-2.5h0v2.5h-0.3v-2.7h0.5l0.7,2.2h0l0.7-2.2h0.5v2.7H211.7z"/>
			</g>
		</g>
		<g>
			<path fill="#fff" d="M102.5,39.5l-1.9,0c0-0.3-0.2-1-0.5-2.2l-2.7,0c-0.4,1.2-0.6,1.9-0.6,2.2l-1.8,0c0-0.2,0.5-1.4,1.4-3.8
				c0.9-2.4,1.4-3.7,1.4-3.9l2.2,0c0,0.2,0.4,1.5,1.2,3.8C102.1,38,102.5,39.3,102.5,39.5z M99.8,36.2c-0.7-2-1-3.1-1-3.3h-0.1
				c0,0.2-0.3,1.2-1,3.3H99.8z"/>
			<path fill="#fff" d="M110.1,39.5h-1.5c0-0.2-0.5-1-1.6-2.5c-1.1-1.6-1.8-2.7-1.9-3.3H105c0.1,0.9,0.1,1.6,0.1,2.3
				c0,1,0,2.1,0.1,3.5h-1.4c0.1-1.2,0.1-2.6,0.1-4c0-1.4,0-2.6-0.1-3.7l1.7,0c0,0.2,0.5,1,1.5,2.5c1,1.5,1.6,2.6,1.8,3.1h0.1
				c-0.1-0.9-0.1-1.7-0.1-2.4c0-1.1,0-2.2-0.1-3.3l1.5,0c-0.1,1-0.1,2.2-0.1,3.7C110,37,110,38.3,110.1,39.5z"/>
			<path fill="#fff" d="M118.6,35.4c0,1.1-0.4,2.1-1.1,2.9c-0.7,0.8-1.7,1.2-3,1.2c-0.6,0-1.4,0-2.4-0.1c0.1-1.2,0.1-2.5,0.1-4
				c0-1.4,0-2.6-0.1-3.7l1,0c0.2,0,0.4,0,0.8,0c0.3,0,0.6,0,0.7,0c1.4,0,2.4,0.4,3.1,1.1C118.3,33.6,118.6,34.4,118.6,35.4z
				 M117,35.6c0-0.8-0.2-1.4-0.7-1.9c-0.4-0.5-1.1-0.8-2-0.8c-0.2,0-0.4,0-0.7,0.1c0,0.8,0.1,1.6,0.1,2.5c0,0.9,0,1.9,0.1,2.8
				c0.3,0.1,0.5,0.1,0.8,0.1c0.8,0,1.5-0.3,1.9-0.8C116.8,37,117,36.4,117,35.6z"/>
			<path fill="#fff" d="M126.5,39.5h-1.7c-0.5-1.4-0.8-2.2-1-2.6c-0.2-0.3-0.6-0.5-1.2-0.5c-0.2,0-0.4,0-0.7,0c0,1,0,2,0.1,3.1
				l-1.6,0c0.1-1.2,0.1-2.5,0.1-4c0-1.4,0-2.6-0.1-3.7l1,0c0.1,0,0.4,0,0.7,0c0.4,0,0.7,0,1,0c1.8,0,2.7,0.6,2.7,1.8
				c0,1-0.5,1.7-1.5,2v0.1c0.4,0.1,0.7,0.4,1,0.9C125.5,37.2,126,38.1,126.5,39.5z M124.3,34.1c0-0.8-0.5-1.2-1.5-1.2
				c-0.4,0-0.7,0-1,0.1c0,0.6,0.1,1.4,0.1,2.4c0.2,0,0.4,0,0.5,0C123.6,35.4,124.3,34.9,124.3,34.1z"/>
			<path fill="#fff" d="M134.9,35.5c0,1.2-0.4,2.2-1.1,3c-0.7,0.8-1.6,1.2-2.7,1.2c-1,0-1.9-0.4-2.6-1.1c-0.7-0.7-1-1.7-1-2.8
				c0-1.2,0.4-2.2,1.1-3c0.7-0.8,1.6-1.2,2.7-1.2c1,0,1.9,0.4,2.6,1.1C134.5,33.5,134.9,34.4,134.9,35.5z M133.3,35.7
				c0-0.8-0.2-1.5-0.6-2c-0.4-0.5-0.9-0.8-1.6-0.8c-0.6,0-1.1,0.3-1.5,0.8c-0.4,0.5-0.6,1.2-0.6,1.9c0,0.8,0.2,1.5,0.6,2
				c0.4,0.5,0.9,0.8,1.5,0.8c0.6,0,1.1-0.3,1.5-0.8C133.1,37.1,133.3,36.5,133.3,35.7z"/>
			<path fill="#fff" d="M138.2,39.5l-1.7,0c0.1-1.2,0.1-2.6,0.1-4c0-1.4,0-2.6-0.1-3.7l1.7,0c-0.1,1-0.1,2.2-0.1,3.7
				C138.1,37,138.2,38.3,138.2,39.5z"/>
			<path fill="#fff" d="M146.7,35.4c0,1.1-0.4,2.1-1.1,2.9c-0.7,0.8-1.7,1.2-3,1.2c-0.6,0-1.4,0-2.4-0.1c0.1-1.2,0.1-2.5,0.1-4
				c0-1.4,0-2.6-0.1-3.7l1,0c0.2,0,0.4,0,0.8,0c0.3,0,0.6,0,0.7,0c1.4,0,2.4,0.4,3.1,1.1C146.4,33.6,146.7,34.4,146.7,35.4z
				 M145.1,35.6c0-0.8-0.2-1.4-0.7-1.9c-0.4-0.5-1.1-0.8-2-0.8c-0.2,0-0.4,0-0.7,0.1c0,0.8,0.1,1.6,0.1,2.5c0,0.9,0,1.9,0.1,2.8
				c0.3,0.1,0.5,0.1,0.8,0.1c0.8,0,1.5-0.3,1.9-0.8C144.9,37,145.1,36.4,145.1,35.6z"/>
			<path fill="#fff" d="M158,39.5l-1.9,0c0-0.3-0.2-1-0.5-2.2l-2.7,0c-0.4,1.2-0.6,1.9-0.6,2.2h-1.8c0-0.2,0.5-1.4,1.4-3.8
				c0.9-2.4,1.4-3.7,1.4-3.9l2.2,0c0,0.2,0.4,1.5,1.2,3.8C157.6,38,158,39.3,158,39.5z M155.3,36.2c-0.7-2-1-3.1-1-3.3h-0.1
				c0,0.2-0.3,1.2-1,3.3L155.3,36.2z"/>
			<path fill="#fff" d="M164.9,33.8c0,0.9-0.3,1.6-1,2.1c-0.7,0.4-1.5,0.7-2.6,0.7c-0.2,0-0.3,0-0.4,0c0,0.7,0,1.7,0.1,2.9
				l-1.7,0c0.1-1.1,0.1-2.5,0.1-4c0-1.4,0-2.6-0.1-3.7h1c0.1,0,0.4,0,0.8,0c0.4,0,0.8,0,1.1,0c0.7,0,1.4,0.2,1.9,0.5
				C164.6,32.6,164.9,33.2,164.9,33.8z M163.4,34.2c0-0.8-0.6-1.3-1.7-1.3c-0.3,0-0.6,0-0.9,0.1c0,0.7,0.1,1.6,0.1,2.5
				c0.1,0,0.2,0,0.3,0C162.7,35.5,163.4,35.1,163.4,34.2z"/>
			<path fill="#fff" d="M172,33.8c0,0.9-0.3,1.6-1,2.1c-0.7,0.4-1.5,0.7-2.6,0.7c-0.2,0-0.3,0-0.4,0c0,0.7,0,1.7,0.1,2.9h-1.7
				c0.1-1.1,0.1-2.5,0.1-4c0-1.4,0-2.6-0.1-3.7l1,0c0.1,0,0.4,0,0.8,0c0.4,0,0.8,0,1.1,0c0.7,0,1.4,0.2,1.9,0.5
				C171.7,32.6,172,33.2,172,33.8z M170.4,34.2c0-0.8-0.6-1.3-1.7-1.3c-0.3,0-0.6,0-0.9,0.1c0,0.7,0.1,1.6,0.1,2.5
				c0.1,0,0.2,0,0.3,0C169.7,35.5,170.4,35.1,170.4,34.2z"/>
			<path fill="#fff" d="M183.5,35.5c0,1.2-0.4,2.2-1.1,3c-0.7,0.8-1.6,1.2-2.7,1.2c-1,0-1.9-0.4-2.6-1.1c-0.7-0.7-1-1.7-1-2.8
				c0-1.2,0.4-2.2,1.1-3c0.7-0.8,1.6-1.2,2.7-1.2c1,0,1.9,0.4,2.6,1.1C183.1,33.5,183.5,34.4,183.5,35.5z M181.9,35.7
				c0-0.8-0.2-1.5-0.6-2c-0.4-0.5-0.9-0.8-1.6-0.8c-0.6,0-1.1,0.3-1.5,0.8c-0.4,0.5-0.6,1.2-0.6,1.9c0,0.8,0.2,1.5,0.6,2
				c0.4,0.5,0.9,0.8,1.5,0.8c0.6,0,1.1-0.3,1.5-0.8C181.7,37.1,181.9,36.5,181.9,35.7z"/>
			<path fill="#fff" d="M191.5,39.5l-1.5,0c0-0.2-0.5-1-1.6-2.5c-1.1-1.6-1.8-2.7-1.9-3.3h-0.1c0.1,0.9,0.1,1.6,0.1,2.3
				c0,1,0,2.1,0.1,3.5l-1.4,0c0.1-1.2,0.1-2.6,0.1-4c0-1.4,0-2.6-0.1-3.7l1.7,0c0,0.2,0.5,1,1.5,2.5c1,1.5,1.6,2.6,1.8,3.1h0.1
				c-0.1-0.9-0.1-1.7-0.1-2.4c0-1.1,0-2.2-0.1-3.3l1.5,0c-0.1,1-0.1,2.2-0.1,3.7C191.4,37,191.4,38.3,191.5,39.5z"/>
		</g>
	</g>
</g>
<g id="Linhas_Guias" display="none">
</g>
</svg>
